<svg xmlns="http://www.w3.org/2000/svg" xmlns:xlink="http://www.w3.org/1999/xlink" 
width="1024" zoomAndPan="magnify" viewBox="0 0 768 767.999994" height="1024" 
preserveAspectRatio="xMidYMid meet" version="1.0">
<path fill="#242424" d="M 400.511719 530.089844 L 389.652344 562.667969 L 422.230469 551.808594 L 669.480469 304.558594 
L 647.761719 282.839844 Z M 400.511719 530.089844 " fill-opacity="1" fill-rule="nonzero"/><path fill="#02735E" d="M 691.199219 0 L 76.800781 0 C 34.453125 0 0 34.453125 0 76.800781 L 0 691.199219 C 0 733.546875 34.453125 768 76.800781 768 L 691.199219 768 C 733.546875 768 768 733.546875 768 691.199219 L 768 76.800781 C 768 34.453125 733.546875 0 691.199219 0 Z M 138.238281 122.878906 L 629.761719 122.878906 C 638.253906 122.878906 645.121094 129.761719 645.121094 138.238281 C 645.121094 146.71875 638.253906 153.601562 629.761719 153.601562 L 138.238281 153.601562 C 129.761719 153.601562 122.878906 146.71875 122.878906 138.238281 C 122.878906 129.761719 129.761719 122.878906 138.238281 122.878906 Z M 138.238281 215.039062 L 568.320312 215.039062 C 576.8125 215.039062 583.679688 221.921875 583.679688 230.398438 C 583.679688 238.878906 576.8125 245.761719 568.320312 245.761719 L 138.238281 245.761719 C 129.761719 245.761719 122.878906 238.878906 122.878906 230.398438 C 122.878906 221.921875 129.761719 215.039062 138.238281 215.039062 Z M 138.238281 307.199219 L 476.160156 307.199219 C 484.652344 307.199219 491.519531 314.082031 491.519531 322.558594 C 491.519531 331.039062 484.652344 337.921875 476.160156 337.921875 L 138.238281 337.921875 C 129.761719 337.921875 122.878906 331.039062 122.878906 322.558594 C 122.878906 314.082031 129.761719 307.199219 138.238281 307.199219 Z M 138.238281 399.359375 L 384 399.359375 C 392.480469 399.359375 399.359375 406.226562 399.359375 414.71875 C 399.359375 423.214844 392.480469 430.078125 384 430.078125 L 138.238281 430.078125 C 129.761719 430.078125 122.878906 423.214844 122.878906 414.71875 C 122.878906 406.226562 129.761719 399.359375 138.238281 399.359375 Z M 291.839844 614.398438 L 138.238281 614.398438 C 129.761719 614.398438 122.878906 607.535156 122.878906 599.039062 C 122.878906 590.546875 129.761719 583.679688 138.238281 583.679688 L 291.839844 583.679688 C 300.320312 583.679688 307.199219 590.546875 307.199219 599.039062 C 307.199219 607.535156 300.320312 614.398438 291.839844 614.398438 Z M 322.558594 522.238281 L 138.238281 522.238281 C 129.761719 522.238281 122.878906 515.375 122.878906 506.878906 C 122.878906 498.386719 129.761719 491.519531 138.238281 491.519531 L 322.558594 491.519531 C 331.039062 491.519531 337.921875 498.386719 337.921875 506.878906 C 337.921875 515.375 331.039062 522.238281 322.558594 522.238281 Z M 702.058594 315.417969 L 441.386719 576.09375 C 439.710938 577.765625 437.652344 579.042969 435.378906 579.792969 L 370.222656 601.511719 C 368.625 602.050781 366.996094 602.3125 365.367188 602.3125 C 361.359375 602.3125 357.425781 600.730469 354.507812 597.8125 C 350.390625 593.695312 348.964844 587.613281 350.792969 582.097656 L 372.511719 516.941406 C 373.261719 514.683594 374.539062 512.625 376.226562 510.933594 L 636.902344 250.261719 C 642.664062 244.5 652.863281 244.5 658.621094 250.261719 L 702.058594 293.699219 C 704.945312 296.585938 706.558594 300.488281 706.558594 304.558594 C 706.558594 308.628906 704.945312 312.546875 702.058594 315.417969 Z M 702.058594 315.417969 " fill-opacity="1" fill-rule="nonzero" /></svg>